<?xml version="1.0" standalone="no"?>
<!DOCTYPE svg PUBLIC "-//W3C//DTD SVG 20010904//EN"
 "http://www.w3.org/TR/2001/REC-SVG-20010904/DTD/svg10.dtd">
<svg version="1.0" xmlns="http://www.w3.org/2000/svg"
 width="183.000000pt" height="183.000000pt" viewBox="0 0 183.000000 183.000000"
 preserveAspectRatio="xMidYMid meet">
<metadata>
Created by potrace 1.11, written by Peter Selinger 2001-2013
</metadata>
<g transform="translate(0.000000,183.000000) scale(0.100000,-0.100000)"
fill="#000000" stroke="none">
<path d="M862 1814 c-12 -8 -28 -27 -36 -42 -13 -26 -13 -42 -2 -88 5 -19 0
-26 -29 -40 -59 -28 -129 -99 -165 -166 -19 -35 -44 -71 -57 -81 -25 -20 -30
-56 -11 -86 8 -13 8 -30 1 -58 -14 -54 -8 -161 10 -205 15 -35 14 -36 -14 -57
-33 -24 -40 -70 -14 -91 14 -12 13 -16 -6 -36 -20 -21 -24 -22 -48 -10 -14 7
-30 12 -36 11 -5 -2 -23 -6 -38 -9 -33 -8 -67 -58 -67 -99 0 -38 29 -86 56
-93 19 -5 21 -9 13 -42 -14 -59 -10 -160 7 -231 43 -177 175 -320 341 -371 72
-22 207 -27 281 -10 163 38 305 172 362 340 24 72 33 192 19 265 -8 41 -7 51
7 58 23 13 44 69 38 103 -2 16 -19 42 -36 58 -27 25 -37 28 -78 24 -39 -4 -49
-1 -59 15 -9 14 -10 22 -2 30 20 20 12 64 -14 85 -25 20 -25 20 -9 63 21 59
21 214 -1 249 -3 5 -1 11 5 15 17 11 11 61 -10 80 -12 11 -35 46 -53 79 -39
73 -101 136 -163 165 -36 17 -44 26 -39 39 31 73 -18 152 -94 152 -20 0 -47
-7 -59 -16z"/>
</g>
</svg>
